<svg width="16" height="10" viewBox="0 0 16 10" fill="none" xmlns="http://www.w3.org/2000/svg">
<path fill-rule="evenodd" clip-rule="evenodd" d="M5.31862 0.807396C5.37682 0.865453 5.423 0.934423 5.45451 1.01035C5.48602 1.08629 5.50223 1.16769 5.50223 1.2499C5.50223 1.33211 5.48602 1.41351 5.45451 1.48944C5.423 1.56537 5.37682 1.63434 5.31862 1.6924L2.00987 4.9999L5.31862 8.3074C5.37673 8.36551 5.42282 8.43449 5.45427 8.51042C5.48572 8.58634 5.50191 8.66772 5.50191 8.7499C5.50191 8.83208 5.48572 8.91345 5.45427 8.98938C5.42282 9.0653 5.37673 9.13429 5.31862 9.1924C5.26051 9.25051 5.19152 9.2966 5.1156 9.32805C5.03967 9.3595 4.9583 9.37569 4.87612 9.37569C4.79394 9.37569 4.71256 9.3595 4.63664 9.32805C4.56071 9.2966 4.49173 9.25051 4.43362 9.1924L0.683617 5.4424C0.625413 5.38434 0.579235 5.31537 0.547727 5.23944C0.516219 5.16351 0.5 5.08211 0.5 4.9999C0.5 4.91769 0.516219 4.83629 0.547727 4.76035C0.579235 4.68442 0.625413 4.61545 0.683617 4.5574L4.43362 0.807396C4.49167 0.749192 4.56064 0.703013 4.63657 0.671505C4.71251 0.639997 4.79391 0.623779 4.87612 0.623779C4.95833 0.623779 5.03973 0.639997 5.11566 0.671505C5.19159 0.703013 5.26056 0.749192 5.31862 0.807396Z" fill="white"/>
<path fill-rule="evenodd" clip-rule="evenodd" d="M1.125 5C1.125 4.83424 1.19085 4.67527 1.30806 4.55806C1.42527 4.44085 1.58424 4.375 1.75 4.375H14.875C15.0408 4.375 15.1997 4.44085 15.3169 4.55806C15.4342 4.67527 15.5 4.83424 15.5 5C15.5 5.16576 15.4342 5.32473 15.3169 5.44194C15.1997 5.55915 15.0408 5.625 14.875 5.625H1.75C1.58424 5.625 1.42527 5.55915 1.30806 5.44194C1.19085 5.32473 1.125 5.16576 1.125 5Z" fill="white"/>
</svg>
